<?xml version="1.0" encoding="UTF-8" standalone="no"?>
<!-- Created with Inkscape (http://www.inkscape.org/) -->

<svg
   version="1.1"
   id="svg59"
   width="600"
   height="600"
   viewBox="0 0 600 600"
   sodipodi:docname="Reliance_Jio_Logo_(October_2015) (1).svg"
   inkscape:version="1.2.2 (732a01da63, 2022-12-09)"
   xmlns:inkscape="http://www.inkscape.org/namespaces/inkscape"
   xmlns:sodipodi="http://sodipodi.sourceforge.net/DTD/sodipodi-0.dtd"
   xmlns="http://www.w3.org/2000/svg"
   xmlns:svg="http://www.w3.org/2000/svg">
  <defs
     id="defs63" />
  <sodipodi:namedview
     id="namedview61"
     pagecolor="#ffffff"
     bordercolor="#000000"
     borderopacity="0.25"
     inkscape:showpageshadow="2"
     inkscape:pageopacity="0.0"
     inkscape:pagecheckerboard="0"
     inkscape:deskcolor="#d1d1d1"
     showgrid="false"
     inkscape:zoom="0.83833333"
     inkscape:cx="300"
     inkscape:cy="300"
     inkscape:window-width="1366"
     inkscape:window-height="706"
     inkscape:window-x="-8"
     inkscape:window-y="-8"
     inkscape:window-maximized="1"
     inkscape:current-layer="g65" />
  <g
     inkscape:groupmode="layer"
     inkscape:label="Image"
     id="g65">
    <g
       id="g214"
       transform="translate(1.1928385,-1.1928429)">
      <path
         style="fill:#fed0d0"
         d="m 277.07799,590.8173 c 0.33229,-0.33229 1.19479,-0.36781 1.91667,-0.0789 0.79773,0.31922 0.56078,0.55618 -0.60417,0.60416 -1.05416,0.0434 -1.64479,-0.19293 -1.3125,-0.52522 z m 45,0 c 0.33229,-0.33229 1.19479,-0.36781 1.91667,-0.0789 0.79773,0.31922 0.56078,0.55618 -0.60417,0.60416 -1.05416,0.0434 -1.64479,-0.19293 -1.3125,-0.52522 z m 172.22917,-72.39583 c 0.99549,-1.1 2.03498,-2 2.30998,-2 0.275,0 -0.31449,0.9 -1.30998,2 -0.99549,1.1 -2.03498,2 -2.30998,2 -0.275,0 0.31449,-0.9 1.30998,-2 z m 25.5,-25.5 c 1.86578,-1.925 3.61733,-3.5 3.89233,-3.5 0.275,0 -1.02655,1.575 -2.89233,3.5 -1.86578,1.925 -3.61733,3.5 -3.89233,3.5 -0.275,0 1.02655,-1.575 2.89233,-3.5 z m -443.127559,-5.25 c -1.243871,-1.58606 -1.208501,-1.62143 0.377555,-0.37756 0.9625,0.75485 1.75,1.54235 1.75,1.75 0,0.82304 -0.821186,0.29331 -2.127555,-1.37244 z m 207.877559,-85.9734 c 1.7875,-0.22182 4.7125,-0.22182 6.5,0 1.7875,0.22183 0.325,0.40333 -3.25,0.40333 -3.575,0 -5.0375,-0.1815 -3.25,-0.40333 z m 28.25,-8.7766 c 0.68469,-0.825 1.46989,-1.5 1.74489,-1.5 0.275,0 -0.0602,0.675 -0.74489,1.5 -0.68469,0.825 -1.46989,1.5 -1.74489,1.5 -0.275,0 0.0602,-0.675 0.74489,-1.5 z m -108,-7.62582 c 0,-0.275 1.35,-1.79338 3,-3.37418 1.65,-1.5808 3,-2.64918 3,-2.37418 0,0.275 -1.35,1.79338 -3,3.37418 -1.65,1.5808 -3,2.64918 -3,2.37418 z m 294,-7.37418 c 2.42903,-2.475 4.64142,-4.5 4.91642,-4.5 0.275,0 -1.48739,2.025 -3.91642,4.5 -2.42903,2.475 -4.64142,4.5 -4.91642,4.5 -0.275,0 1.48739,-2.025 3.91642,-4.5 z m 27.29966,-63.5 c 0,-3.025 0.18747,-4.2625 0.41659,-2.75 0.22913,1.5125 0.22913,3.9875 0,5.5 -0.22912,1.5125 -0.41659,0.275 -0.41659,-2.75 z m -293.83992,-45 c 0,-24.475 0.13017,-34.4875 0.28926,-22.25 0.15909,12.2375 0.15909,32.2625 0,44.5 -0.15909,12.2375 -0.28926,2.225 -0.28926,-22.25 z m 172.54026,19.5 c 0.68469,-0.825 1.46989,-1.5 1.74489,-1.5 0.275,0 -0.0602,0.675 -0.74489,1.5 -0.68469,0.825 -1.46989,1.5 -1.74489,1.5 -0.275,0 0.0602,-0.675 0.74489,-1.5 z m 50.5,-2.5 c -1.5808,-1.65 -2.64918,-3 -2.37418,-3 0.275,0 1.79338,1.35 3.37418,3 1.5808,1.65 2.64918,3 2.37418,3 -0.275,0 -1.79338,-1.35 -3.37418,-3 z m -45.5,-2.5 c 0.68469,-0.825 1.46989,-1.5 1.74489,-1.5 0.275,0 -0.0602,0.675 -0.74489,1.5 -0.68469,0.825 -1.46989,1.5 -1.74489,1.5 -0.275,0 0.0602,-0.675 0.74489,-1.5 z m 183.07895,-1.91667 c -0.0434,-1.05416 0.19293,-1.64479 0.52522,-1.3125 0.33229,0.33229 0.36781,1.19479 0.0789,1.91667 -0.31922,0.79773 -0.55618,0.56078 -0.60416,-0.60417 z M 159.1353,267.92147 c -0.004,-3.85 0.17268,-5.54754 0.39359,-3.7723 0.22091,1.77523 0.22454,4.92523 0.008,7 -0.21648,2.07476 -0.39722,0.6223 -0.40166,-3.2277 z m 161.82975,-16.5 c 0,-1.375 0.22698,-1.9375 0.50439,-1.25 0.27741,0.6875 0.27741,1.8125 0,2.5 -0.27741,0.6875 -0.50439,0.125 -0.50439,-1.25 z m 180.71455,0.25 c -1.24387,-1.58606 -1.2085,-1.62143 0.37756,-0.37756 0.9625,0.75485 1.75,1.54235 1.75,1.75 0,0.82304 -0.82119,0.29331 -2.12756,-1.37244 z m -4.46745,-4.5 -1.90499,-2.25 2.25,1.90499 c 2.11444,1.79022 2.70524,2.59501 1.90499,2.59501 -0.18976,0 -1.20226,-1.0125 -2.25,-2.25 z m -61.65499,-25.41228 c 0.6875,-0.27741 1.8125,-0.27741 2.5,0 0.6875,0.27741 0.125,0.50439 -1.25,0.50439 -1.375,0 -1.9375,-0.22698 -1.25,-0.50439 z m -176.34501,-20.58772 -1.90499,-2.25 2.25,1.90499 c 2.11444,1.79022 2.70524,2.59501 1.90499,2.59501 -0.18976,0 -1.20226,-1.0125 -2.25,-2.25 z m 53.09501,0.25 c 0.99549,-1.1 2.03498,-2 2.30998,-2 0.275,0 -0.31449,0.9 -1.30998,2 -0.99549,1.1 -2.03498,2 -2.30998,2 -0.275,0 0.31449,-0.9 1.30998,-2 z m -145.5,-18.5 c 0.68469,-0.825 1.46989,-1.5 1.74489,-1.5 0.275,0 -0.0602,0.675 -0.74489,1.5 -0.68469,0.825 -1.46989,1.5 -1.74489,1.5 -0.275,0 0.0602,-0.675 0.74489,-1.5 z m 146.40499,-28.75 -1.90499,-2.25 2.25,1.90499 c 2.11444,1.79022 2.70524,2.59501 1.90499,2.59501 -0.18976,0 -1.20226,-1.0125 -2.25,-2.25 z M 108.80716,77.921471 c 0.68469,-0.825 1.46989,-1.5 1.74489,-1.5 0.275,0 -0.0602,0.675 -0.74489,1.5 -0.68469,0.825 -1.46989,1.5 -1.74489,1.5 -0.275,0 0.0602,-0.675 0.74489,-1.5 z m 165.75,-70.1622809 c 0.6875,-0.277412 1.8125,-0.277412 2.5,0 0.6875,0.277413 0.125,0.504386 -1.25,0.504386 -1.375,0 -1.9375,-0.226973 -1.25,-0.504386 z"
         id="path228" />
      <path
         style="fill:#feb0b0"
         d="m 280.07799,590.8173 c 0.33229,-0.33229 1.19479,-0.36781 1.91667,-0.0789 0.79773,0.31922 0.56078,0.55618 -0.60417,0.60416 -1.05416,0.0434 -1.64479,-0.19293 -1.3125,-0.52522 z m 39,0 c 0.33229,-0.33229 1.19479,-0.36781 1.91667,-0.0789 0.79773,0.31922 0.56078,0.55618 -0.60417,0.60416 -1.05416,0.0434 -1.64479,-0.19293 -1.3125,-0.52522 z m 177.72917,-74.43335 c 0,-0.275 4.5,-4.98312 10,-10.46248 5.5,-5.47936 10,-9.73748 10,-9.46248 0,0.275 -4.5,4.98312 -10,10.46248 -5.5,5.47936 -10,9.73748 -10,9.46248 z m -133.07569,-138.71248 -2.42431,-2.75 2.75,2.42431 c 2.57029,2.26589 3.20859,3.07569 2.42431,3.07569 -0.17912,0 -1.41662,-1.2375 -2.75,-2.75 z m -267.519326,-48.5 -1.904988,-2.25 2.25,1.90499 c 2.114445,1.79022 2.70524,2.59501 1.904988,2.59501 -0.189757,0 -1.202257,-1.0125 -2.25,-2.25 z m 154.022526,-26.75 c 0,-12.375 0.14355,-17.4375 0.319,-11.25 0.17544,6.1875 0.17544,16.3125 0,22.5 -0.17545,6.1875 -0.319,1.125 -0.319,-11.25 z m -18.1415,15.5 c 0.008,-2.75 0.20172,-3.75631 0.43157,-2.23625 0.22986,1.52006 0.22371,3.77006 -0.0136,5 -0.23736,1.22994 -0.42542,-0.0138 -0.41792,-2.76375 z m 360.79294,-3.91667 c -0.0434,-1.05416 0.19293,-1.64479 0.52522,-1.3125 0.33229,0.33229 0.36781,1.19479 0.0789,1.91667 -0.31922,0.79773 -0.55618,0.56078 -0.60416,-0.60417 z m 0,-29 c -0.0434,-1.05416 0.19293,-1.64479 0.52522,-1.3125 0.33229,0.33229 0.36781,1.19479 0.0789,1.91667 -0.31922,0.79773 -0.55618,0.56078 -0.60416,-0.60417 z M 159.14337,254.42147 c 0,-4.125 0.17651,-5.8125 0.39226,-3.75 0.21574,2.0625 0.21574,5.4375 0,7.5 -0.21575,2.0625 -0.39226,0.375 -0.39226,-3.75 z m 73.06628,-44 c 0,-8.525 0.15337,-12.0125 0.34082,-7.75 0.18745,4.2625 0.18745,11.2375 0,15.5 -0.18745,4.2625 -0.34082,0.775 -0.34082,-7.75 z m 206.86834,11.39583 c 0.33229,-0.33229 1.19479,-0.36781 1.91667,-0.0789 0.79773,0.31922 0.56078,0.55618 -0.60417,0.60416 -1.05416,0.0434 -1.64479,-0.19293 -1.3125,-0.52522 z M 79.807156,107.32737 c 0,-0.275 1.8,-2.25766 4,-4.4059 2.2,-2.14824 4,-3.680899 4,-3.405899 0,0.275 -1.8,2.257659 -4,4.405899 -2.2,2.14824 -4,3.6809 -4,3.4059 z M 105.30716,81.421471 c 0.99549,-1.1 2.03498,-2 2.30998,-2 0.275,0 -0.31449,0.9 -1.30998,2 -0.99549,1.1 -2.03498,2 -2.30998,2 -0.275,0 0.31449,-0.9 1.30998,-2 z m 173.25,-73.6622809 c 0.6875,-0.277412 1.8125,-0.277412 2.5,0 0.6875,0.277413 0.125,0.504386 -1.25,0.504386 -1.375,0 -1.9375,-0.226973 -1.25,-0.504386 z m 46,0 c 0.6875,-0.277412 1.8125,-0.277412 2.5,0 0.6875,0.277413 0.125,0.504386 -1.25,0.504386 -1.375,0 -1.9375,-0.226973 -1.25,-0.504386 z"
         id="path226" />
      <path
         style="fill:#fe8f8f"
         d="m 283.07799,590.8173 c 0.33229,-0.33229 1.19479,-0.36781 1.91667,-0.0789 0.79773,0.31922 0.56078,0.55618 -0.60417,0.60416 -1.05416,0.0434 -1.64479,-0.19293 -1.3125,-0.52522 z m 33,0 c 0.33229,-0.33229 1.19479,-0.36781 1.91667,-0.0789 0.79773,0.31922 0.56078,0.55618 -0.60417,0.60416 -1.05416,0.0434 -1.64479,-0.19293 -1.3125,-0.52522 z m -233.865846,-97.64583 -1.904988,-2.25 2.25,1.90499 c 2.114445,1.79022 2.705241,2.59501 1.904988,2.59501 -0.189757,0 -1.202257,-1.0125 -2.25,-2.25 z m 56.325986,-86.40594 c 0.67703,-0.27392 2.02703,-0.29059 3,-0.0371 0.97297,0.25354 0.41903,0.47766 -1.23097,0.49804 -1.65,0.0204 -2.44606,-0.18706 -1.76903,-0.46099 z m 138.53986,-4.94823 c 0.33229,-0.33229 1.19479,-0.36781 1.91667,-0.0789 0.79773,0.31922 0.56078,0.55618 -0.60417,0.60416 -1.05416,0.0434 -1.64479,-0.19293 -1.3125,-0.52522 z m -26.85064,-57.89583 c -8.9e-4,-11 0.14522,-15.63644 0.32467,-10.30319 0.17945,5.33324 0.18018,14.33324 0.002,20 -0.17857,5.66675 -0.3254,1.30319 -0.32628,-9.69681 z m -99.42019,-8 c 0.68469,-0.825 1.46989,-1.5 1.74489,-1.5 0.275,0 -0.0602,0.675 -0.74489,1.5 -0.68469,0.825 -1.46989,1.5 -1.74489,1.5 -0.275,0 0.0602,-0.675 0.74489,-1.5 z m 81.19495,-11 c -0.0204,-1.65 0.18706,-2.44606 0.46099,-1.76903 0.27392,0.67703 0.29059,2.02703 0.0371,3 -0.25354,0.97297 -0.47766,0.41903 -0.49804,-1.23097 z m -74,-10 c -0.0204,-1.65 0.18706,-2.44606 0.46099,-1.76903 0.27392,0.67703 0.29059,2.02703 0.0371,3 -0.25354,0.97297 -0.47766,0.41903 -0.49804,-1.23097 z m 238.884,1.08333 c -0.0434,-1.05416 0.19293,-1.64479 0.52522,-1.3125 0.33229,0.33229 0.36781,1.19479 0.0789,1.91667 -0.31922,0.79773 -0.55618,0.56078 -0.60416,-0.60417 z m 0,-5 c -0.0434,-1.05416 0.19293,-1.64479 0.52522,-1.3125 0.33229,0.33229 0.36781,1.19479 0.0789,1.91667 -0.31922,0.79773 -0.55618,0.56078 -0.60416,-0.60417 z m 196.24112,-4.58333 c 0,-3.575 0.1815,-5.0375 0.40333,-3.25 0.22182,1.7875 0.22182,4.7125 0,6.5 -0.22183,1.7875 -0.40333,0.325 -0.40333,-3.25 z m -67.24112,-0.41667 c -0.0434,-1.05416 0.19293,-1.64479 0.52522,-1.3125 0.33229,0.33229 0.36781,1.19479 0.0789,1.91667 -0.31922,0.79773 -0.55618,0.56078 -0.60416,-0.60417 z m 67.23092,-14.08333 c -0.006,-3.3 0.17648,-4.77056 0.40466,-3.26791 0.22817,1.50265 0.23276,4.20265 0.0102,6 -0.22256,1.79735 -0.40925,0.56791 -0.41486,-2.73209 z m -342.94937,-20.5 c 0,-5.225 0.16854,-7.3625 0.37454,-4.75 0.206,2.6125 0.206,6.8875 0,9.5 -0.206,2.6125 -0.37454,0.475 -0.37454,-4.75 z m 113.6395,-22.5 c 1.86578,-1.925 3.61733,-3.5 3.89233,-3.5 0.275,0 -1.02655,1.575 -2.89233,3.5 -1.86578,1.925 -3.61733,3.5 -3.89233,3.5 -0.275,0 1.02655,-1.575 2.89233,-3.5 z m -204.61824,-13 c 0.002,-6.6 0.16382,-9.16987 0.35965,-5.71081 0.19583,3.45905 0.19422,8.85905 -0.004,12 -0.19781,3.14094 -0.35803,0.31081 -0.35606,-6.28919 z m 118.33173,-26.23598 c 2.86742,-0.2013 7.81742,-0.20315 11,-0.004 3.18258,0.19905 0.83651,0.36376 -5.21349,0.36601 -6.05,0.002 -8.65393,-0.1606 -5.78651,-0.36191 z m -27.46131,-31.76402 c -0.0111,-2.2 0.18461,-3.21775 0.4349,-2.26166 0.25029,0.95609 0.25937,2.75609 0.0202,4 -0.23919,1.24391 -0.44398,0.46166 -0.45508,-1.73834 z m 9.24782,-24.5 c 0.99549,-1.1 2.03498,-2 2.30998,-2 0.275,0 -0.31449,0.9 -1.30998,2 -0.99549,1.1 -2.03498,2 -2.30998,2 -0.275,0 0.31449,-0.9 1.30998,-2 z M 87.807156,99.374551 c 0,-0.275 3.6,-4.078886 8,-8.45308 4.400004,-4.374194 8.000004,-7.72808 8.000004,-7.45308 0,0.275 -3.6,4.078886 -8.000004,8.45308 -4.4,4.374194 -8,7.72808 -8,7.45308 z M 284.05716,7.7052171 c 1.5125,-0.229125 3.9875,-0.229125 5.5,0 1.5125,0.229124 0.275,0.41659 -2.75,0.41659 -3.025,0 -4.2625,-0.187466 -2.75,-0.41659 z m 36.5,0.05397 c 0.6875,-0.277412 1.8125,-0.277412 2.5,0 0.6875,0.277413 0.125,0.504386 -1.25,0.504386 -1.375,0 -1.9375,-0.226973 -1.25,-0.504386 z"
         id="path224" />
      <path
         style="fill:#fe5e5e"
         d="m 286.53813,590.76553 c 0.67703,-0.27392 2.02703,-0.29059 3,-0.0371 0.97297,0.25354 0.41903,0.47766 -1.23097,0.49804 -1.65,0.0204 -2.44606,-0.18706 -1.76903,-0.46099 z m 23.50737,-0.0311 c 0.95609,-0.25029 2.75609,-0.25937 4,-0.0202 1.24391,0.23919 0.46166,0.44398 -1.73834,0.45508 -2.2,0.0111 -3.21775,-0.18461 -2.26166,-0.4349 z M 87.307156,498.42147 c -1.5808,-1.65 -2.649182,-3 -2.374182,-3 0.275,0 1.793382,1.35 3.374182,3 1.5808,1.65 2.649182,3 2.374182,3 -0.275,0 -1.793382,-1.35 -3.374182,-3 z m 46.230974,-91.65594 c 0.67703,-0.27392 2.02703,-0.29059 3,-0.0371 0.97297,0.25354 0.41903,0.47766 -1.23097,0.49804 -1.65,0.0204 -2.44606,-0.18706 -1.76903,-0.46099 z m 10,0 c 0.67703,-0.27392 2.02703,-0.29059 3,-0.0371 0.97297,0.25354 0.41903,0.47766 -1.23097,0.49804 -1.65,0.0204 -2.44606,-0.18706 -1.76903,-0.46099 z m 286.51903,-1.03339 c 0.9625,-0.25152 2.5375,-0.25152 3.5,0 0.9625,0.25153 0.175,0.45733 -1.75,0.45733 -1.925,0 -2.7125,-0.2058 -1.75,-0.45733 z M 250.09317,367.92147 c 0.008,-2.75 0.20172,-3.75631 0.43157,-2.23625 0.22986,1.52006 0.22371,3.77006 -0.0136,5 -0.23736,1.22994 -0.42542,-0.0138 -0.41792,-2.76375 z m 72.16654,-51 c -3.1e-4,-20.35 0.13278,-28.81693 0.29575,-18.8154 0.16297,10.00152 0.16322,26.65152 5.6e-4,37 -0.16266,10.34847 -0.296,2.1654 -0.29631,-18.1846 z m 266.6264,29.08333 c -0.0434,-1.05416 0.19293,-1.64479 0.52522,-1.3125 0.33229,0.33229 0.36781,1.19479 0.0789,1.91667 -0.31922,0.79773 -0.55618,0.56078 -0.60416,-0.60417 z m -181.67396,-5.83333 -1.90499,-2.25 2.25,1.90499 c 2.11444,1.79022 2.70524,2.59501 1.90499,2.59501 -0.18976,0 -1.20226,-1.0125 -2.25,-2.25 z m 48.09501,0.25 c 0.99549,-1.1 2.03498,-2 2.30998,-2 0.275,0 -0.31449,0.9 -1.30998,2 -0.99549,1.1 -2.03498,2 -2.30998,2 -0.275,0 0.31449,-0.9 1.30998,-2 z M 231.88611,329.0048 c -0.0434,-1.05416 0.19292,-1.64479 0.52522,-1.3125 0.33229,0.33229 0.36781,1.19479 0.0789,1.91667 -0.31922,0.79773 -0.55618,0.56078 -0.60416,-0.60417 z M 81.807156,326.92147 c 1.291745,-1.375 2.573628,-2.5 2.848628,-2.5 0.275,0 -0.556883,1.125 -1.848628,2.5 -1.291745,1.375 -2.573628,2.5 -2.848628,2.5 -0.275,0 0.556883,-1.125 1.848628,-2.5 z m -72.8421049,-11.5 c 0,-1.375 0.226973,-1.9375 0.504386,-1.25 0.277412,0.6875 0.277412,1.8125 0,2.5 -0.277413,0.6875 -0.504386,0.125 -0.504386,-1.25 z m 327.9999989,-2 c 0,-1.375 0.22698,-1.9375 0.50439,-1.25 0.27741,0.6875 0.27741,1.8125 0,2.5 -0.27741,0.6875 -0.50439,0.125 -0.50439,-1.25 z m -178.87188,-5.5 c 0.008,-2.75 0.20172,-3.75631 0.43157,-2.23625 0.22986,1.52006 0.22371,3.77006 -0.0136,5 -0.23736,1.22994 -0.42542,-0.0138 -0.41792,-2.76375 z m 434.79294,-8.91667 c -0.0434,-1.05416 0.19293,-1.64479 0.52522,-1.3125 0.33229,0.33229 0.36781,1.19479 0.0789,1.91667 -0.31922,0.79773 -0.55618,0.56078 -0.60416,-0.60417 z M 8.9650511,283.42147 c 0,-1.375 0.226973,-1.9375 0.504386,-1.25 0.277412,0.6875 0.277412,1.8125 0,2.5 -0.277413,0.6875 -0.504386,0.125 -0.504386,-1.25 z m 241.0741089,-24 c 0,-1.925 0.2058,-2.7125 0.45733,-1.75 0.25152,0.9625 0.25152,2.5375 0,3.5 -0.25153,0.9625 -0.45733,0.175 -0.45733,-1.75 z m 8.268,-25 c 0.99549,-1.1 2.03498,-2 2.30998,-2 0.275,0 -0.31449,0.9 -1.30998,2 -0.99549,1.1 -2.03498,2 -2.30998,2 -0.275,0 0.31449,-0.9 1.30998,-2 z m 54.90499,-0.25 -1.90499,-2.25 2.25,1.90499 c 2.11444,1.79022 2.70524,2.59501 1.90499,2.59501 -0.18976,0 -1.20226,-1.0125 -2.25,-2.25 z m -154.06218,-17.25 c 0.004,-4.4 0.17944,-6.07561 0.39069,-3.72357 0.21124,2.35204 0.20827,5.95204 -0.007,8 -0.21487,2.04796 -0.38771,0.12357 -0.38408,-4.27643 z m 283.92802,4.89583 c 0.33229,-0.33229 1.19479,-0.36781 1.91667,-0.0789 0.79773,0.31922 0.56078,0.55618 -0.60417,0.60416 -1.05416,0.0434 -1.64479,-0.19293 -1.3125,-0.52522 z M 294.55716,209.75919 c 0.6875,-0.27741 1.8125,-0.27741 2.5,0 0.6875,0.27741 0.125,0.50439 -1.25,0.50439 -1.375,0 -1.9375,-0.22698 -1.25,-0.50439 z m 201.17431,-128.087719 -2.42431,-2.75 2.75,2.424314 c 1.5125,1.333373 2.75,2.570873 2.75,2.75 0,0.784274 -0.8098,0.145975 -3.07569,-2.424314 z M 298.55716,7.6789641 c 3.9875,-0.189811 10.5125,-0.189811 14.5,0 3.9875,0.189812 0.725,0.345113 -7.25,0.345113 -7.975,0 -11.2375,-0.155301 -7.25,-0.345113 z"
         id="path222" />
      <path
         style="fill:#fe2f2f"
         d="m 295.05716,590.68643 c 2.6125,-0.206 6.8875,-0.206 9.5,0 2.6125,0.206 0.475,0.37454 -4.75,0.37454 -5.225,0 -7.3625,-0.16854 -4.75,-0.37454 z m -195.269754,-80.01496 -9.48025,-9.75 9.750004,9.48025 c 9.0557,8.80516 10.20489,10.01975 9.48025,10.01975 -0.14836,0 -4.53586,-4.3875 -9.750004,-9.75 z m 426.019754,-25.75 c 0.68469,-0.825 1.46989,-1.5 1.74489,-1.5 0.275,0 -0.0602,0.675 -0.74489,1.5 -0.68469,0.825 -1.46989,1.5 -1.74489,1.5 -0.275,0 0.0602,-0.675 0.74489,-1.5 z m -101.75,-79.18933 c 0.9625,-0.25152 2.5375,-0.25152 3.5,0 0.9625,0.25153 0.175,0.45733 -1.75,0.45733 -1.925,0 -2.7125,-0.2058 -1.75,-0.45733 z m 12,0 c 0.9625,-0.25152 2.5375,-0.25152 3.5,0 0.9625,0.25153 0.175,0.45733 -1.75,0.45733 -1.925,0 -2.7125,-0.2058 -1.75,-0.45733 z m -124.25,-10.81067 c 1.29175,-1.375 2.57363,-2.5 2.84863,-2.5 0.275,0 -0.55688,1.125 -1.84863,2.5 -1.29175,1.375 -2.57363,2.5 -2.84863,2.5 -0.275,0 0.55688,-1.125 1.84863,-2.5 z m -53.07569,-1.25 -2.42431,-2.75 2.75,2.42431 c 2.57029,2.26589 3.20859,3.07569 2.42431,3.07569 -0.17912,0 -1.41662,-1.2375 -2.75,-2.75 z m 241.07569,-15.75 c 1.29175,-1.375 2.57363,-2.5 2.84863,-2.5 0.275,0 -0.55688,1.125 -1.84863,2.5 -1.29175,1.375 -2.57363,2.5 -2.84863,2.5 -0.275,0 0.55688,-1.125 1.84863,-2.5 z M 249.88611,374.0048 c -0.0434,-1.05416 0.19292,-1.64479 0.52522,-1.3125 0.33229,0.33229 0.36781,1.19479 0.0789,1.91667 -0.31922,0.79773 -0.55618,0.56078 -0.60416,-0.60417 z m 72.24919,-14.08333 c -0.004,-3.85 0.17268,-5.54754 0.39359,-3.7723 0.22091,1.77523 0.22454,4.92523 0.008,7 -0.21648,2.07476 -0.39722,0.6223 -0.40166,-3.2277 z M 433.07799,349.8173 c 0.33229,-0.33229 1.19479,-0.36781 1.91667,-0.0789 0.79773,0.31922 0.56078,0.55618 -0.60417,0.60416 -1.05416,0.0434 -1.64479,-0.19293 -1.3125,-0.52522 z m -96.01865,-30.89583 c -0.0111,-2.2 0.18461,-3.21775 0.4349,-2.26166 0.25029,0.95609 0.25937,2.75609 0.0202,4 -0.23919,1.24391 -0.44398,0.46166 -0.45508,-1.73834 z m -327.9423149,-11 c -0.0056,-3.3 0.176483,-4.77056 0.404657,-3.26791 0.228174,1.50265 0.232767,4.20265 0.01021,6 -0.222566,1.79735 -0.409254,0.56791 -0.414867,-2.73209 z m 327.8480249,1.5 c 0,-1.375 0.22698,-1.9375 0.50439,-1.25 0.27741,0.6875 0.27741,1.8125 0,2.5 -0.27741,0.6875 -0.50439,0.125 -0.50439,-1.25 z m -178.85823,-11 c 0,-3.025 0.18747,-4.2625 0.41659,-2.75 0.22913,1.5125 0.22913,3.9875 0,5.5 -0.22912,1.5125 -0.41659,0.275 -0.41659,-2.75 z m -148.9897949,-7.5 c -0.0056,-3.3 0.176483,-4.77056 0.404657,-3.26791 0.228174,1.50265 0.232767,4.20265 0.01021,6 -0.222566,1.79735 -0.409254,0.56791 -0.414867,-2.73209 z m 313.0600949,-20.5 c 0,-5.775 0.16528,-8.1375 0.36728,-5.25 0.202,2.8875 0.202,7.6125 0,10.5 -0.202,2.8875 -0.36728,0.525 -0.36728,-5.25 z m 108.38004,6.33772 c 0.6875,-0.27741 1.8125,-0.27741 2.5,0 0.6875,0.27741 0.125,0.50439 -1.25,0.50439 -1.375,0 -1.9375,-0.22698 -1.25,-0.50439 z m 69.17431,-28.08772 -2.42431,-2.75 2.75,2.42431 c 1.5125,1.33338 2.75,2.57088 2.75,2.75 0,0.78428 -0.8098,0.14598 -3.07569,-2.42431 z M 283.07091,224.70389 c 1.52006,-0.22986 3.77006,-0.22371 5,0.0136 1.22994,0.23736 -0.0138,0.42542 -2.76375,0.41792 -2.75,-0.008 -3.75631,-0.20172 -2.23625,-0.43157 z M 159.03916,206.42147 c 0,-1.925 0.2058,-2.7125 0.45733,-1.75 0.25152,0.9625 0.25152,2.5375 0,3.5 -0.25153,0.9625 -0.45733,0.175 -0.45733,-1.75 z m 162.92589,-26 c 0,-1.375 0.22698,-1.9375 0.50439,-1.25 0.27741,0.6875 0.27741,1.8125 0,2.5 -0.27741,0.6875 -0.50439,0.125 -0.50439,-1.25 z m 0.0371,-6.5 c -0.0204,-1.65 0.18706,-2.44606 0.46099,-1.76903 0.27392,0.67703 0.29059,2.02703 0.0371,3 -0.25354,0.97297 -0.47766,0.41903 -0.49804,-1.23097 z m -37.46729,-29.22173 c 1.77523,-0.22091 4.92523,-0.22454 7,-0.008 2.07476,0.21648 0.6223,0.39722 -3.2277,0.40166 -3.85,0.004 -5.54754,-0.17268 -3.7723,-0.39359 z M 528.6796,116.67147 c -1.24387,-1.58606 -1.2085,-1.62143 0.37756,-0.37756 1.66575,1.30637 2.19548,2.12756 1.37244,2.12756 -0.20765,0 -0.99515,-0.7875 -1.75,-1.75 z m -19.38949,-21.499999 -10.98295,-11.25 11.25,10.982946 c 6.1875,6.040623 11.25,11.103123 11.25,11.250003 0,0.72114 -1.31566,-0.53351 -11.51705,-10.982949 z"
         id="path220" />
      <path
         style="fill:#3e47cb"
         d="M 272.80716,589.79936 C 229.48837,584.72787 185.26324,570.16897 152.31446,550.13321 129.86528,536.48213 110.81419,521.29262 92.556419,502.48789 47.93263,456.52728 22.798325,406.0883 12.544376,341.92147 c -1.950246,-12.20419 -2.233451,-17.7199 -2.20784,-43 0.025,-24.67949 0.349145,-31.0213 2.175699,-42.56733 3.567218,-22.54912 11.245702,-50.5727 19.024616,-69.43267 6.9542,-16.86046 20.6171,-41.131 32.650617,-58 15.948117,-22.35662 44.008172,-50.506856 65.619692,-65.830578 14.83397,-10.518078 44.80056,-27.794226 54.50478,-31.42275 1.64737,-0.615972 5.91061,-2.332909 9.47387,-3.815414 11.88615,-4.945278 40.63224,-13.051774 55.02135,-15.516213 18.04316,-3.0902709 28.95727,-3.8993709 52.70197,-3.9069739 28.67306,-0.0092 43.65852,1.6433829 67.79803,7.4766199 12.0696,2.916581 36.79227,10.66373 43,13.474572 24.63625,11.155224 35.04482,16.947601 55.5,30.885809 30.11533,20.520651 57.7589,49.152228 77.87172,80.654928 2.80917,4.4 5.44974,8.45673 5.86793,9.01495 1.30368,1.74021 5.24875,8.78259 7.55418,13.48505 1.21339,2.475 2.54367,4.65 2.95617,4.83333 0.4125,0.18334 0.75,0.75558 0.75,1.27165 0,0.51607 1.84018,4.86607 4.08928,9.66667 4.65035,9.92592 15.37754,41.27453 17.50193,51.14676 6.50881,30.24713 8.41988,46.03511 8.38751,69.29218 -0.0281,20.22131 -2.4213,40.54608 -7.80533,66.28941 -1.58432,7.57531 -8.87192,30.74349 -12.87875,40.94311 -14.27055,36.32663 -33.69376,65.86372 -62.73794,95.40628 -19.71031,20.04853 -27.3808,26.48027 -48.0567,40.29572 -13.93928,9.3141 -46.97757,26.85489 -50.58151,26.85489 -0.83517,0 -1.94599,0.39352 -2.46849,0.87448 -1.17205,1.07889 -27.06018,9.38364 -37.95,12.17413 -4.4,1.12749 -14.525,3.20736 -22.5,4.62193 -12.94291,2.29576 -17.56048,2.60122 -43,2.84453 -15.675,0.14992 -30.075,0.0882 -32,-0.13718 z m -106.5,-184.76569 c 20.30846,-4.38819 35.75424,-13.45148 47.5259,-27.88729 6.2611,-7.67811 13.26634,-21.60184 16.21284,-32.22491 2.18142,-7.8647 2.22418,-9.20668 2.52801,-79.34746 l 0.30906,-71.34747 -2.46593,-4.20778 c -6.21122,-10.59865 -15.32265,-16.61233 -28.18478,-18.60236 -13.42811,-2.0776 -29.50965,3.56071 -37.69279,13.21539 -3.45685,4.07848 -3.998,5.44464 -4.73254,11.94737 -0.45616,4.03827 -1.08179,33.25674 -1.3903,64.92993 -0.34392,35.30836 -0.97967,59.54011 -1.64328,62.63444 -2.99078,13.94553 -17.61661,21.46257 -34.79176,17.88145 -9.56878,-1.99515 -16.11221,-5.66362 -24.857275,-13.93586 -5.554661,-5.25433 -7.683921,-6.68602 -9.219067,-6.19878 -3.5881,1.13882 -15.889127,15.36095 -19.321044,22.33849 -2.967678,6.03369 -3.277048,7.51374 -3.277048,15.67766 0,8.13352 0.293332,9.55022 3,14.48905 8.399486,15.32645 28.150102,27.21211 51.500004,30.99204 4.125,0.66776 8.175,1.37888 9,1.58026 3.55633,0.8681 31.10774,-0.55294 37.5,-1.93417 z m 282.61901,-0.0738 c 21.18007,-3.69378 38.16924,-12.73378 53.01376,-28.20882 10.15471,-10.58607 15.61741,-19.74536 20.17628,-33.82958 3.59642,-11.11082 4.69095,-18.18294 4.69095,-30.30987 0,-40.39658 -25.56239,-74.40288 -66,-87.8015 -8.16194,-2.70438 -9.29543,-2.81783 -28.5,-2.85251 -19.25527,-0.0348 -20.33513,0.0698 -29,2.80889 -11.81478,3.73479 -22.2908,9.2503 -31.51247,16.59094 -24.38727,19.41281 -36.36515,46.36047 -34.69377,78.05355 1.46004,27.68553 15.04967,52.06938 38.70624,69.45052 19.91953,14.63544 47.14146,20.6288 73.11901,16.09835 z m -31.88786,-59.05855 c -9.1952,-4.53678 -14.30753,-10.62854 -17.36368,-20.69024 -4.13214,-13.60417 -0.94654,-27.73284 8.45219,-37.48691 7.164,-7.43485 12.93651,-9.76961 24.18034,-9.78001 7.52094,-0.007 9.72179,0.37552 13.39204,2.3273 6.62071,3.52079 13.75441,10.73059 16.84579,17.0255 2.48397,5.05805 2.76209,6.68207 2.76137,16.12454 -7e-4,9.28737 -0.30908,11.15788 -2.67018,16.1965 -3.26471,6.96692 -9.65961,13.53944 -16.32902,16.78255 -3.81819,1.85666 -7.00907,2.50883 -13.5,2.75923 -8.05284,0.31064 -8.8824,0.13922 -15.76885,-3.25846 z m -110.66294,53.82294 c 5.14526,-2.72923 11.03334,-9.20887 13.79446,-15.18036 2.11534,-4.57487 2.13733,-5.30664 2.13733,-71.12243 v -66.5 l -2.6636,-5 c -3.45066,-6.47743 -9.07512,-11.84061 -15.3364,-14.62398 -4.21958,-1.87576 -6.87301,-2.23465 -17,-2.29935 -7.525,-0.0481 -13.79106,0.44346 -16.80285,1.31809 -6.09546,1.77013 -13.91118,8.6906 -17.50246,15.49764 l -2.69469,5.1076 -0.29789,64.32934 c -0.32751,70.72353 -0.34095,70.53753 5.70333,78.88142 1.6268,2.24574 4.56268,5.30724 6.52416,6.80334 6.30813,4.81145 9.75233,5.5143 25.5704,5.21811 12.60898,-0.23611 15.03056,-0.55294 18.56821,-2.42945 z m -0.79041,-192.34962 c 6.85158,-3.42377 11.50956,-8.17634 14.60578,-14.90236 1.72491,-3.7471 2.09413,-6.49351 2.09061,-15.55081 -0.004,-9.97906 -0.25216,-11.47242 -2.67502,-16.09002 -3.12603,-5.95777 -8.25335,-10.7529 -14.69624,-13.74413 -4.02912,-1.87059 -6.34819,-2.1314 -18.60293,-2.09215 -16.338,0.0523 -20.38513,1.31234 -27.46221,8.54994 -6.87074,7.02659 -8.48795,11.56138 -8.51485,23.87636 -0.0206,9.4247 0.25522,11.06637 2.6932,16.03047 3.25639,6.63048 6.47053,9.87138 13.79135,13.90617 5.34904,2.94806 5.8475,3.0276 19.08279,3.04524 13.16313,0.0175 13.78191,-0.0776 19.68752,-3.02871 z"
         id="path218" />
      <path
         style="fill:#fe0b0b"
         d="m 457.80716,544.92147 c 0.68469,-0.825 1.46989,-1.5 1.74489,-1.5 0.275,0 -0.0602,0.675 -0.74489,1.5 -0.68469,0.825 -1.46989,1.5 -1.74489,1.5 -0.275,0 0.0602,-0.675 0.74489,-1.5 z m -345.12756,-22.25 c -1.24387,-1.58606 -1.2085,-1.62143 0.37756,-0.37756 0.9625,0.75485 1.75,1.54235 1.75,1.75 0,0.82304 -0.82119,0.29331 -2.12756,-1.37244 z m 394.62756,-18.25 c 8.23625,-8.25 15.19999,-15 15.47499,-15 0.275,0 -6.23874,6.75 -14.47499,15 -8.23625,8.25 -15.19999,15 -15.47499,15 -0.275,0 6.23874,-6.75 14.47499,-15 z m -428.000004,-15 c -1.5808,-1.65 -2.649182,-3 -2.374182,-3 0.275,0 1.793382,1.35 3.374182,3 1.5808,1.65 2.649182,3 2.374182,3 -0.275,0 -1.793382,-1.35 -3.374182,-3 z m -3,-104 c -1.5808,-1.65 -2.649182,-3 -2.374182,-3 0.275,0 1.793382,1.35 3.374182,3 1.5808,1.65 2.649182,3 2.374182,3 -0.275,0 -1.793382,-1.35 -3.374182,-3 z m 131.500004,-2.5 c 2.42903,-2.475 4.64142,-4.5 4.91642,-4.5 0.275,0 -1.48739,2.025 -3.91642,4.5 -2.42903,2.475 -4.64142,4.5 -4.91642,4.5 -0.275,0 1.48739,-2.025 3.91642,-4.5 z m 287.5,-0.5 c 0.99549,-1.1 2.03498,-2 2.30998,-2 0.275,0 -0.31449,0.9 -1.30998,2 -0.99549,1.1 -2.03498,2 -2.30998,2 -0.275,0 0.31449,-0.9 1.30998,-2 z m -131.55383,-3.75 -3.44617,-3.75 3.75,3.44617 c 3.49042,3.20761 4.20979,4.05383 3.44617,4.05383 -0.16711,0 -1.85461,-1.6875 -3.75,-3.75 z m 140.55383,-5.25 c 0.99549,-1.1 2.03498,-2 2.30998,-2 0.275,0 -0.31449,0.9 -1.30998,2 -0.99549,1.1 -2.03498,2 -2.30998,2 -0.275,0 0.31449,-0.9 1.30998,-2 z m -182.34211,-5 c 0,-1.375 0.22698,-1.9375 0.50439,-1.25 0.27741,0.6875 0.27741,1.8125 0,2.5 -0.27741,0.6875 -0.50439,0.125 -0.50439,-1.25 z M 430.07799,349.8173 c 0.33229,-0.33229 1.19479,-0.36781 1.91667,-0.0789 0.79773,0.31922 0.56078,0.55618 -0.60417,0.60416 -1.05416,0.0434 -1.64479,-0.19293 -1.3125,-0.52522 z M 75.807156,332.92147 c 0.684689,-0.825 1.469889,-1.5 1.744889,-1.5 0.275,0 -0.0602,0.675 -0.744889,1.5 -0.684689,0.825 -1.469889,1.5 -1.744889,1.5 -0.275,0 0.0602,-0.675 0.744889,-1.5 z m 21.5,-3.5 c -1.5808,-1.65 -2.649182,-3 -2.374182,-3 0.275,0 1.793382,1.35 3.374182,3 1.5808,1.65 2.649184,3 2.374184,3 -0.275,0 -1.793384,-1.35 -3.374184,-3 z M 336.88611,324.0048 c -0.0434,-1.05416 0.19293,-1.64479 0.52522,-1.3125 0.33229,0.33229 0.36781,1.19479 0.0789,1.91667 -0.31922,0.79773 -0.55618,0.56078 -0.60416,-0.60417 z m 0.0789,-18.58333 c 0,-1.375 0.22698,-1.9375 0.50439,-1.25 0.27741,0.6875 0.27741,1.8125 0,2.5 -0.27741,0.6875 -0.50439,0.125 -0.50439,-1.25 z m -327.9258909,-6 c 0,-1.925 0.205795,-2.7125 0.457323,-1.75 0.251527,0.9625 0.251527,2.5375 0,3.5 -0.251528,0.9625 -0.457323,0.175 -0.457323,-1.75 z m 149.0676609,-11 c 0,-3.025 0.18747,-4.2625 0.41659,-2.75 0.22913,1.5125 0.22913,3.9875 0,5.5 -0.22912,1.5125 -0.41659,0.275 -0.41659,-2.75 z m 249.70034,-1.5 c 1.86578,-1.925 3.61733,-3.5 3.89233,-3.5 0.275,0 -1.02655,1.575 -2.89233,3.5 -1.86578,1.925 -3.61733,3.5 -3.89233,3.5 -0.275,0 1.02655,-1.575 2.89233,-3.5 z m 46.92431,-0.25 -2.42431,-2.75 2.75,2.42431 c 2.57029,2.26589 3.20859,3.07569 2.42431,3.07569 -0.17912,0 -1.41662,-1.2375 -2.75,-2.75 z m -132.76642,-28.25 c 0,-1.375 0.22698,-1.9375 0.50439,-1.25 0.27741,0.6875 0.27741,1.8125 0,2.5 -0.27741,0.6875 -0.50439,0.125 -0.50439,-1.25 z m 181.71455,-5.75 c -1.24387,-1.58606 -1.2085,-1.62143 0.37756,-0.37756 0.9625,0.75485 1.75,1.54235 1.75,1.75 0,0.82304 -0.82119,0.29331 -2.12756,-1.37244 z m -142.87244,-1.37582 c 0,-0.275 1.35,-1.79338 3,-3.37418 1.65,-1.5808 3,-2.64918 3,-2.37418 0,0.275 -1.35,1.79338 -3,3.37418 -1.65,1.5808 -3,2.64918 -3,2.37418 z m 134.87244,-6.62418 c -1.24387,-1.58606 -1.2085,-1.62143 0.37756,-0.37756 0.9625,0.75485 1.75,1.54235 1.75,1.75 0,0.82304 -0.82119,0.29331 -2.12756,-1.37244 z M 290.07799,224.8173 c 0.33229,-0.33229 1.19479,-0.36781 1.91667,-0.0789 0.79773,0.31922 0.56078,0.55618 -0.60417,0.60416 -1.05416,0.0434 -1.64479,-0.19293 -1.3125,-0.52522 z m -31.77083,-23.39583 c -1.5808,-1.65 -2.64918,-3 -2.37418,-3 0.275,0 1.79338,1.35 3.37418,3 1.5808,1.65 2.64918,3 2.37418,3 -0.275,0 -1.79338,-1.35 -3.37418,-3 z m 53.5,1.5 c 0.68469,-0.825 1.46989,-1.5 1.74489,-1.5 0.275,0 -0.0602,0.675 -0.74489,1.5 -0.68469,0.825 -1.46989,1.5 -1.74489,1.5 -0.275,0 0.0602,-0.675 0.74489,-1.5 z M 158.88611,202.0048 c -0.0434,-1.05416 0.19292,-1.64479 0.52522,-1.3125 0.33229,0.33229 0.36781,1.19479 0.0789,1.91667 -0.31922,0.79773 -0.55618,0.56078 -0.60416,-0.60417 z m 4.92105,-16.70915 c 0,-0.275 1.35,-1.79338 3,-3.37418 1.65,-1.5808 3,-2.64918 3,-2.37418 0,0.275 -1.35,1.79338 -3,3.37418 -1.65,1.5808 -3,2.64918 -3,2.37418 z m 58.87244,-4.62418 c -1.24387,-1.58606 -1.2085,-1.62143 0.37756,-0.37756 0.9625,0.75485 1.75,1.54235 1.75,1.75 0,0.82304 -0.82119,0.29331 -2.12756,-1.37244 z m 89,-29 c -1.24387,-1.58606 -1.2085,-1.62143 0.37756,-0.37756 0.9625,0.75485 1.75,1.54235 1.75,1.75 0,0.82304 -0.82119,0.29331 -2.12756,-1.37244 z m -32.60161,-6.85417 c 0.33229,-0.33229 1.19479,-0.36781 1.91667,-0.0789 0.79773,0.31922 0.56078,0.55618 -0.60417,0.60416 -1.05416,0.0434 -1.64479,-0.19293 -1.3125,-0.52522 z M 70.307156,119.42147 c 0.995486,-1.1 2.034975,-2 2.309975,-2 0.275,0 -0.314489,0.9 -1.309975,2 -0.995486,1.1 -2.034975,2 -2.309975,2 -0.275,0 0.314489,-0.9 1.309975,-2 z m 8.5,-10.05364 c 0,-0.275 3.15,-3.62586 7,-7.44636 3.85,-3.820499 7,-6.72136 7,-6.44636 0,0.275 -3.15,3.625861 -7,7.44636 -3.85,3.8205 -7,6.72136 -7,6.44636 z M 101.80716,86.327367 c 0,-0.275 1.8,-2.257653 4,-4.405896 2.2,-2.148243 4,-3.680896 4,-3.405896 0,0.275 -1.8,2.257653 -4,4.405896 -2.2,2.148243 -4,3.680896 -4,3.405896 z M 484.6796,72.671471 c -1.24387,-1.586056 -1.2085,-1.621426 0.37756,-0.377555 1.66575,1.306369 2.19548,2.127555 1.37244,2.127555 -0.20765,0 -0.99515,-0.7875 -1.75,-1.75 z"
         id="path216" />
    </g>
  </g>
</svg>
